<?xml version="1.0"?>
<svg xmlns="http://www.w3.org/2000/svg" id="Layer_5" enable-background="new 0 0 64 64" height="512px" viewBox="0 0 64 64" width="512px"><g><g><path d="m49 29v-8h2v-5.472l-17.641-14.528h-2.718l-17.641 14.528v5.472h2v8h-14v34h62v-34zm12 2v2h-12v-2zm-14 30h-2v-40h2zm-10 0h-10v-7c0-2.757 2.243-5 5-5s5 2.243 5 5zm-5-14c-3.86 0-7 3.141-7 7v7h-4v-16h22v16h-4v-7c0-3.859-3.14-7-7-7zm11-26v10h-22v-10zm0 22h-22v-10h22zm-28-24v-2h34v2zm8.079-4 8.921-7.346 8.921 7.346zm8.28-12h1.282l14.572 12h-3.147l-12.066-9.937-12.066 9.937h-3.147zm-12.359 18v40h-2v-40zm-4 10v2h-12v-2zm-12 4h12v26h-12zm46 26v-26h12v26z" data-original="#000000" class="active-path" data-old_color="#000000" fill="#009BC0"/><path d="m51 51h8v-6h-8zm2-4h4v2h-4z" data-original="#000000" class="active-path" data-old_color="#000000" fill="#009BC0"/><path d="m51 59h8v-6h-8zm2-4h4v2h-4z" data-original="#000000" class="active-path" data-old_color="#000000" fill="#009BC0"/><path d="m5 51h8v-6h-8zm2-4h4v2h-4z" data-original="#000000" class="active-path" data-old_color="#000000" fill="#009BC0"/><path d="m51 43h8v-6h-8zm2-4h4v2h-4z" data-original="#000000" class="active-path" data-old_color="#000000" fill="#009BC0"/><path d="m5 37v6h8v-6zm6 4h-4v-2h4z" data-original="#000000" class="active-path" data-old_color="#000000" fill="#009BC0"/><path d="m5 59h8v-6h-8zm2-4h4v2h-4z" data-original="#000000" class="active-path" data-old_color="#000000" fill="#009BC0"/><path d="m31 41v-6h-8v6zm-6-4h4v2h-4z" data-original="#000000" class="active-path" data-old_color="#000000" fill="#009BC0"/><path d="m41 35h-8v6h8zm-2 4h-4v-2h4z" data-original="#000000" class="active-path" data-old_color="#000000" fill="#009BC0"/><path d="m31 29v-6h-8v6zm-6-4h4v2h-4z" data-original="#000000" class="active-path" data-old_color="#000000" fill="#009BC0"/><path d="m41 23h-8v6h8zm-2 4h-4v-2h4z" data-original="#000000" class="active-path" data-old_color="#000000" fill="#009BC0"/></g></g> </svg>
